<svg width="133" height="51" viewBox="0 0 133 51" xmlns="http://www.w3.org/2000/svg" xmlns:xlink="http://www.w3.org/1999/xlink"><title>Group</title><defs><rect id="a" width="28" height="20" rx="1.593"/><rect id="c" x=".667" y=".667" width="26.667" height="18.667" rx=".797"/><rect id="d" width="28" height="20" rx="1.593"/><filter x="-50%" y="-50%" width="200%" height="200%" filterUnits="objectBoundingBox" id="e"><feMorphology radius="1" in="SourceAlpha" operator="dilate" result="shadowSpreadInner1"/><feOffset in="shadowSpreadInner1" result="shadowOffsetInner1"/><feGaussianBlur in="shadowOffsetInner1" result="shadowBlurInner1"/><feComposite in="shadowBlurInner1" in2="SourceAlpha" operator="arithmetic" k2="-1" k3="1" result="shadowInnerInner1"/><feColorMatrix values="0 0 0 0 0 0 0 0 0 0 0 0 0 0 0 0 0 0 0.14 0" in="shadowInnerInner1" result="shadowMatrixInner1"/><feMerge><feMergeNode in="SourceGraphic"/><feMergeNode in="shadowMatrixInner1"/></feMerge></filter><rect id="g" x=".667" y=".667" width="26.667" height="18.667" rx=".797"/><rect id="h" width="28" height="20" rx="1.593"/><path id="j" d="M9.917.667H1.453c-.434 0-.786.356-.786.802v17.06c0 .444.356.803.798.803h25.07c.44 0 .798-.356.798-.802V1.47c0-.444-.353-.803-.792-.803H9.918z"/><rect id="k" width="28" height="20" rx="1.593"/><rect id="m" x=".667" y=".667" width="26.667" height="18.667" rx=".797"/><rect id="n" width="28" height="20" rx="1.593"/><rect id="p" x=".667" y=".667" width="26.667" height="18.667" rx=".797"/><rect id="q" width="28" height="20" rx="1.593"/><rect id="s" x=".667" y=".667" width="26.667" height="18.667" rx=".797"/></defs><g fill="none" fill-rule="evenodd"><g transform="translate(105 31)"><mask id="b" fill="#fff"><use xlink:href="#a"/></mask><use fill="#E82E2E" xlink:href="#a"/><path d="M12 8V4h4v4h4v4h-4v4h-4v-4H8V8h4z" fill="#FFF" mask="url(#b)"/><use stroke-opacity=".157" stroke="#2F343A" stroke-width=".797" xlink:href="#c"/></g><g><mask id="f" fill="#fff"><use xlink:href="#d"/></mask><use fill="#FFF" xlink:href="#d"/><path fill="#435DB0" filter="url(#e)" mask="url(#f)" d="M0 0h12v9.333H0z"/><path d="M1.333 1.333v1.334h1.334V1.333H1.333zm2.667 0v1.334h1.333V1.333H4zm2.667 0v1.334H8V1.333H6.667zm2.666 0v1.334h1.334V1.333H9.333zM8 2.667V4h1.333V2.667H8zm-2.667 0V4h1.334V2.667H5.333zm-2.666 0V4H4V2.667H2.667zM1.333 4v1.333h1.334V4H1.333zM4 4v1.333h1.333V4H4zm2.667 0v1.333H8V4H6.667zm2.666 0v1.333h1.334V4H9.333zm-8 2.667V8h1.334V6.667H1.333zm2.667 0V8h1.333V6.667H4zm2.667 0V8H8V6.667H6.667zm2.666 0V8h1.334V6.667H9.333zM8 5.333v1.334h1.333V5.333H8zm-2.667 0v1.334h1.334V5.333H5.333zm-2.666 0v1.334H4V5.333H2.667z" fill="#A7B6E7" mask="url(#f)"/><path d="M12 0v1.333h16V0H12zm0 2.667V4h16V2.667H12zm0 2.666v1.334h16V5.333H12zM12 8v1.333h16V8H12zM0 10.667V12h28v-1.333H0zm0 2.666v1.334h28v-1.334H0zM0 16v1.333h28V16H0zm0 2.667V20h28v-1.333H0z" fill="#ED4C49" mask="url(#f)"/><use stroke-opacity=".157" stroke="#2F343A" stroke-width=".797" xlink:href="#g"/></g><g transform="translate(105)"><mask id="i" fill="#fff"><use xlink:href="#h"/></mask><use fill="#FFF" xlink:href="#h"/><path fill="#ED3A40" mask="url(#i)" d="M0 0h28v10.667H0z"/><path d="M6.667 7.643C6.274 7.87 5.82 8 5.333 8 3.86 8 2.667 6.806 2.667 5.333c0-1.472 1.194-2.666 2.666-2.666.486 0 .94.13 1.334.356-.797.46-1.334 1.323-1.334 2.31 0 .987.537 1.85 1.334 2.31zM8 6.667V8h1.333V6.667H8zm2.667 0V8H12V6.667h-1.333zM12 4v1.333h1.333V4H12zM6.667 4v1.333H8V4H6.667zm2.666-1.333V4h1.334V2.667H9.333z" fill="#FFF" mask="url(#i)"/><use stroke-opacity=".157" stroke="#2F343A" stroke-width=".797" xlink:href="#j"/></g><g transform="translate(52 31)"><mask id="l" fill="#fff"><use xlink:href="#k"/></mask><use fill="#FFF" xlink:href="#k"/><path fill="#E82E2E" mask="url(#l)" d="M0 0h8v20H0zM20 0h8v20h-8zM17.333 10.667h-6.666l.74-1.186-.74-1.48 1.38.46L14 5.333l1.954 3.127 1.38-.46-.74 1.48.74 1.187zm1.334 0H9.333l4 2.285v1.715h1.334v-1.715l4-2.285z"/><use stroke-opacity=".157" stroke="#2F343A" stroke-width=".797" xlink:href="#m"/></g><g transform="translate(52)"><mask id="o" fill="#fff"><use xlink:href="#n"/></mask><use fill="#22438B" xlink:href="#n"/><path d="M4 1.333l-2.702.035L1.333 4l22.643 14.704 2.716-.05-.05-2.617L4 1.333z" fill="#FFF" mask="url(#o)"/><path d="M2.667 1.333L1.333 2.667l24 16 1.334-1.334-24-16z" fill="#C7152A" mask="url(#o)"/><path d="M24 1.333h2.667V4S11 13.862 4.024 18.704c-.085.06-2.664.004-2.664.004l-.207-2.538L24 1.333z" fill="#FFF" mask="url(#o)"/><path d="M25.39 1.296l1.277 1.37-24 16-1.334-1.333L25.39 1.296z" fill="#C7152A" mask="url(#o)"/><path d="M10.667 1.333h6.666v5.334h9.334v6.666h-9.334v5.334h-6.666v-5.334H1.333V6.667h9.334V1.333z" fill="#FFF" mask="url(#o)"/><path d="M12 1.333h4V8h10.667v4H16v6.667h-4V12H1.333V8H12V1.333z" fill="#C7152A" mask="url(#o)"/><use stroke-opacity=".157" stroke="#2F343A" stroke-width=".797" xlink:href="#p"/></g><g transform="translate(0 31)"><mask id="r" fill="#fff"><use xlink:href="#q"/></mask><use fill="#FFF" xlink:href="#q"/><path fill="#435DB0" mask="url(#r)" d="M0 0h9.333v20H0z"/><path fill="#ED4C49" mask="url(#r)" d="M18.667 0H28v20h-9.333z"/><use stroke-opacity=".157" stroke="#2F343A" stroke-width=".797" xlink:href="#s"/></g></g></svg>