<svg width="47" height="47" viewBox="0 0 47 47" xmlns="http://www.w3.org/2000/svg"><title>rocket.72904efb</title><g fill="none" fill-rule="evenodd"><path d="M5.917 10.19l.5.5.826 2.276 7.662 9.73.215 12.28 1.25 1.75L26.925 26.17 8.43 7.675 5.918 10.19z" fill="#DAE0E4"/><path d="M24.412 28.683l-8.546 8.547 1 1 8.546-8.547-1-1z" fill="#F30C45"/><path d="M24.406 30.69l-7.54 7.54 2.005-.006 6.536-6.536-1-1z" fill="#4E5255"/><path d="M5.917 10.19l.744 2.754L13.9 23.2l.218 11.78 1.748 2.25.503-.503-1.25-1.75-.215-12.282-7.662-9.73-.826-2.276-.5-.5z" fill="#AAB1B4"/><path d="M16.37 36.727l-.504.503 1 1 .502-.503-1-1z" fill="#C00733"/><path d="M16.866 38.23l2.005-.006.503-.503-2.005.007-.502.502" fill="#3E4448"/><path d="M25.406 31.688l-6.535 6.536 1.003-.003 6.033-6.032-.5-.5z" fill="#F1F5F6"/><path d="M22.66 27.435l-.01 3.51 2.25 2.25 1.006-1.007-3.245-4.753z" fill-opacity=".75" fill="#243038"/><path d="M18.87 38.224l1.003-.003.503-.502-1.003.003-.502.504" fill="#AAB1B4"/><path d="M10.945 5.162C2.92-1.145.993.135.935.176H.932S-.49 2.037 5.917 10.19l5.028-5.028z" fill="#DAE0E4"/><path d="M10.19 5.916c-2.303-1.823-4.676-3.5-7.255-4.742l.66-.66c.112.08 1.93.456 7.35 4.648l-.503.502" fill="#F8FCFC"/><path d="M6.67 9.435C4.85 7.13 3.174 4.758 1.93 2.18l-.66.66c.08.11.456 1.93 4.647 7.35l.503-.504" fill="#AAB1B4"/><path d="M1.27 2.84L3.595.514C1.6-.267.967.153.934.175v.002s-.467.61.337 2.662z" fill="#C00733"/><path d="M.933.177l1.5 1.5L3.593.515C1.6-.267.968.153.934.175v.002z" fill="#F30C45"/><path d="M10.945 5.162l.5.5 2.277.825 9.73 7.662 12.28.215 1.75 1.248L26.927 26.17 8.43 7.675l2.515-2.513z" fill="#DAE0E4"/><path d="M5.917 10.19l5.028-5.028L29.44 23.656l-5.028 5.027L5.917 10.19z" fill="#F1F5F6"/><path d="M24.923 25.173l1.006-1.005 6.997 6.997-.003 1.003-1.003.003-6.997-6.997z" fill="#DAE0E4"/><path d="M29.44 23.656l8.545-8.546 1 1-8.546 8.546-1-1z" fill="#F30C45"/><path d="M25.68 23.918l1.507-1.51c.833-.83 2.18-.835 3.008-.007l3.25 3.25-3.018 3.016-4.748-4.748z" fill="#4E5255"/><path d="M33.444 25.65l-3.25-3.25c-.828-.827-2.174-.824-3.007.01l-1.257 1.256.5.5 1.342-1.342c.244-.244.575-.382.92-.383.343 0 .673.136.915.38l3.334 3.333.504-.503z" fill="#6A7176"/><path d="M23.672 24.425l-.007-.993.492-.492 1.023-.024 2.5 2.5-1.508 1.508-2.5-2.5z" fill="#92989C"/><path d="M31.444 23.65l7.54-7.54-.005 2.005-6.536 6.535-1-1z" fill="#4E5255"/><path d="M10.945 5.162l2.754.744 10.255 7.24 11.78.216 2.25 1.748-.502.503-1.75-1.248-12.282-.216-9.728-7.663-2.278-.826-.5-.498z" fill="#F1F5F6"/><path d="M31.182 27.912l1.508-1.508.75.75-1.51 1.508-.748-.75z" fill="#3E4448"/><path d="M31.182 27.912l1.508-1.508.5.5-1.51 1.508-.498-.5z" fill="#243038"/><path d="M33.43 30.16l1.51-1.507.5.5-1.51 1.508-.5-.5z" fill="#3E4448"/><path d="M34.436 29.156l.503-.503.5.5-.504.503-.5-.5z" fill="#4E5255"/><path d="M33.43 30.16l.504-.5.5.5-.503.5-.5-.5z" fill="#243038"/><path d="M29.41 34.183l1.507-1.508.5.5-1.508 1.508-.5-.5z" fill="#3E4448"/><path d="M30.415 33.178l.502-.503.5.5-.503.503-.5-.5z" fill="#4E5255"/><path d="M29.41 34.183l.502-.503.5.5-.503.503-.5-.5z" fill="#243038"/><path d="M31.43 29.165l2.512-2.514.997 2.003-1.51 1.508-2-.995z" fill="#F30C45"/><path d="M10.19 5.916l.755-.754L27.69 21.907l-.754.754L10.19 5.917z" fill="#F8FCFC"/><path d="M5.917 10.19l.754-.755L23.418 26.18l-.754.754L5.917 10.19z" fill="#C7CDD0"/><path d="M5.683 4.425l1.505-.506 1.252.747-1.757.757-1-1z" fill="#3E4448"/><path d="M6.683 5.424l1.757-.757-2.757-.242" fill="#4E5255"/><path d="M5.18 4.927l-.505 1.506.748 1.25.757-1.756-1-1z" fill="#3E4448"/><path d="M6.18 5.927l-.757 1.757-.243-2.757" fill="#4E5255"/><path d="M33.942 26.65l-.503.504.996 2.002.503-.503-.998-2.002z" fill="#FD0D48"/><path d="M31.43 29.165l.5-.503 2.004.997-.503.5-2-.995" fill="#C00733"/><path d="M24.673 24.923l-1.508 1.508c-.833.834-.837 2.18-.008 3.01l3.25 3.248 3.015-3.016-4.75-4.75z" fill="#4E5255"/><path d="M26.406 32.688l-3.25-3.25c-.828-.827-.824-2.174.01-3.007l1.256-1.256.5.5-1.342 1.342c-.244.244-.382.575-.383.92 0 .343.135.673.378.915l3.333 3.335-.502.503zM28.668 30.426l-1.508 1.508.75.75 1.508-1.51-.75-.748z" fill="#3E4448"/><path d="M28.668 30.426l-1.508 1.508.5.5 1.508-1.508-.5-.5z" fill="#243038"/><path d="M29.92 30.673l-2.513 2.513 2.002.997 1.507-1.508-.997-2.002z" fill="#F30C45"/><path d="M29.92 30.673l-.502.502.997 2.003.502-.503-.997-2.002z" fill="#FD0D48"/><path d="M27.407 33.186l.503-.502 2.002.996-.503.503-2.003-.997" fill="#C00733"/><path d="M24.178 22.92l1.002-.004 2.5 2.5-.503.502-3-3z" fill="#AAB1B4"/><path d="M23.672 24.425l.003-1.003 3 3-.503.502-2.5-2.5z" fill="#6A7176"/><path d="M27.428 25.667l5.5 5.498-.004 1.003-5.998-5.998.502-.503z" fill="#F8FCFC"/><path d="M37.483 15.613l.502-.503 1 1-.503.502-1-1z" fill="#FD0D48"/><path d="M38.985 16.11l-.006 2.005-.503.503.005-2.006.503-.502M5.917 10.19l5.028-5.028.5.5-5.028 5.027-.5-.5z" fill="#6A7176"/><path d="M10.19 5.916l.755-.754.5.5-.755.753-.5-.5z" fill="#AAB1B4"/><path d="M5.917 10.19l.754-.755.5.5-.753.754-.5-.5zM15.914 20.186l.755-.754.498.5-.754.754-.5-.5z" fill="#4E5255"/><path d="M8.667 12.938l5.027-5.027.5.5-5.028 5.028-.5-.5z" fill="#6A7176"/><path fill="#F30C45" d="M11.923 13.68l2.513-2.513.25.25-2.513 2.513-.25-.25zM13.672 15.43l2.514-2.514.25.25-2.514 2.514-.25-.25zM15.422 17.18l2.513-2.514.25.25-2.513 2.513-.25-.25z"/><path d="M12.94 8.665l.754-.754.5.5-.755.755-.5-.5z" fill="#AAB1B4"/><path d="M8.667 12.938l.754-.754.5.5-.754.754-.5-.5zM10.438 7.168l.25-.25.25.25-.25.25-.25-.25zM7.673 9.933l.25-.25.25.25-.25.25-.25-.25zM11.937 8.668l.25-.252.25.25-.25.252-.25-.25zM9.172 11.433l.25-.252.25.25-.25.253-.25-.25z" fill="#4E5255"/><path d="M16.67 19.432l4.272-4.273.5.5-4.274 4.272-.5-.5z" fill="#6A7176"/><path d="M20.188 15.913l.754-.754.5.5-.755.753-.5-.5z" fill="#AAB1B4"/><path d="M18.664 22.935l5.027-5.027.5.5-5.026 5.027-.5-.5z" fill="#6A7176"/><path d="M22.937 18.662l.754-.754.5.5-.753.754-.5-.5z" fill="#AAB1B4"/><path d="M18.664 22.935l.754-.754.5.5-.754.755-.5-.5zM20.435 17.165l.25-.25.25.25-.25.25-.25-.25zM17.67 19.93l.25-.25.25.25-.25.25-.25-.25zM21.934 18.665l.252-.252.25.25-.252.252-.25-.25zM19.17 21.43l.25-.252.25.25-.25.252-.25-.25z" fill="#4E5255"/><path d="M32.444 24.65l6.535-6.535-.004 1.002-6.032 6.033-.5-.5z" fill="#F1F5F6"/><path d="M38.98 18.115l-.004 1.002-.502.503.003-1.002.502-.503" fill="#F8FCFC"/><path d="M23.672 24.425l.244 2.255 2.25 2.25-.246-1.755.252-.25-2.5-2.5z" fill-opacity=".75" fill="#243038"/><path d="M26.423 26.673l-.503.502 3 3 .502-.503-3-3z" fill-opacity=".702" fill="#243038"/><path d="M10.438 7.168l-.002.5.25.25.25-.25.003-.5-.253.25-.25-.25M11.937 8.668v.5l.25.25.25-.25v-.502l-.25.252-.25-.25M9.172 11.433v.5l.25.25.25-.25v-.502l-.25.253-.25-.25M7.673 9.933l-.002.5.25.25.252-.25.002-.5-.252.25-.25-.25M20.435 17.165l-.002.502.25.25.25-.252.003-.5-.25.25-.25-.25M21.934 18.665v.5l.25.25.25-.25v-.502l-.25.252-.25-.25M19.17 21.43l-.002.5.25.25.25-.25.003-.502-.25.252-.25-.25M17.67 19.93l-.002.5.25.25.252-.25v-.5l-.25.25-.25-.25" fill="#DAE0E4"/><path d="M47.026 41.746s-6.19-10.28-7.105-11.196c-1.122-1.123-2.948-1.118-4.078.012-1.13 1.13-1.135 2.955-.01 4.08.914.914 11.194 7.104 11.194 7.104z" fill-opacity=".25" fill="#F9A600"/><path d="M44.683 39.403s-3.89-6.906-5.24-8.256c-.828-.828-2.174-.824-3.007.008-.833.833-.837 2.18-.01 3.008 1.35 1.35 8.257 5.24 8.257 5.24z" fill="#F9A600"/><path d="M41.434 36.154s-2.004-3.558-2.7-4.253c-.426-.426-1.12-.424-1.548.005-.43.43-.432 1.123-.005 1.55.696.695 4.254 2.7 4.254 2.7z" fill="#FCC300"/><path d="M37.433 33.158c-.276-.276-.275-.725.002-1.003.278-.277.727-.28 1.003-.003-.2.035-.452.152-.653.353-.2.2-.318.453-.352.653z" fill="#FBE900"/><path d="M42.502 46.27s-6.19-10.28-7.106-11.195c-1.123-1.123-2.95-1.118-4.078.01-1.13 1.13-1.135 2.957-.012 4.08.915.915 11.196 7.106 11.196 7.106z" fill-opacity=".25" fill="#F9A600"/><path d="M40.16 43.928s-3.89-6.907-5.24-8.257c-.83-.827-2.176-.823-3.01.01-.832.833-.835 2.18-.007 3.008 1.35 1.35 8.256 5.24 8.256 5.24z" fill="#F9A600"/><path d="M36.91 40.678s-2.004-3.557-2.7-4.253c-.426-.426-1.12-.424-1.55.005-.428.43-.43 1.122-.003 1.55.695.694 4.253 2.698 4.253 2.698z" fill="#FCC300"/><path d="M32.908 37.682c-.276-.276-.275-.725.003-1.002.28-.278.727-.28 1.004-.003-.2.034-.453.152-.653.353-.2.2-.317.452-.352.652z" fill="#FBE900"/></g></svg>