<svg width="66" height="65" viewBox="0 0 66 65" xmlns="http://www.w3.org/2000/svg"><title>thumbsUp</title><g fill="#008ACE" fill-rule="evenodd"><path d="M15.762 64.35H0V25.55h15.762V64.35zM2.78 61.556h10.203v-33.21H2.78v33.21zM50.828 64.777l-.216-.002h-22.24c-6.216 0-10.38-2.058-10.554-2.145l-.768-.387v-34.32h1.39c1.545 0 3.024-1.204 4.453-2.366.25-.204.496-.403.74-.596 1.79-1.823 4.438-5.594 5.716-7.416 2.384-3.397 3.594-6.405 3.594-8.94V2.753c0-1.582 1.638-2.645 4.078-2.645 2.42 0 4.806.99 6.384 2.652 1.59 1.674 2.367 3.997 2.245 6.717-.163 3.647-1.345 6.952-2.294 9.61-.544 1.52-1.057 2.96-1.057 3.694 0 1.69 1.408 3.226 2.956 3.226h14.28c1.708 0 3.318.69 4.417 1.892 1 1.09 1.487 2.49 1.38 3.946-.042 2.01-.588 3.545-.82 4.173-.115.41-.242.846-.378 1.302-.043.35-.025.784.317 1.374 1.986 3.422.71 5.33-.22 6.722-.71 1.06-1.137 1.7-.66 3.132 1.04 3.143-1.254 5.182-2.772 6.53-.478.426-1.193 1.06-1.304 1.356.335 2.27-.12 4.15-1.35 5.594-2.118 2.48-5.823 2.75-7.318 2.75zm-31-4.323c1.37.53 4.478 1.525 8.544 1.525h22.456c1.786 0 4.092-.465 5.21-1.773.697-.817.928-1.93.705-3.398-.25-1.634 1.06-2.798 2.217-3.826 1.515-1.346 2.404-2.257 1.975-3.55-.908-2.738.19-4.38.992-5.578.822-1.23 1.234-1.845.127-3.752-.62-1.066-.83-2.147-.65-3.304l.04-.183c.15-.498.288-.973.412-1.415l.035-.105c.175-.474.638-1.732.665-3.345l.005-.092c.057-.684-.174-1.348-.65-1.87-.576-.628-1.44-.99-2.373-.99h-14.28c-3.11 0-5.736-2.756-5.736-6.02 0-1.22.54-2.73 1.223-4.64.885-2.48 1.987-5.564 2.133-8.788.088-1.967-.41-3.536-1.48-4.66-1.252-1.32-3.08-1.79-4.374-1.79-.63 0-1.07.107-1.3.2v5.503c0 3.124-1.38 6.673-4.102 10.552-2.14 3.05-4.36 6.11-6.082 7.842l-.13.113c-.252.198-.508.406-.768.618-1.392 1.133-2.934 2.388-4.812 2.826v29.898z"/></g></svg>