<?xml version="1.0" encoding="utf-8"?>
<!-- Generator: Adobe Illustrator 18.0.0, SVG Export Plug-In . SVG Version: 6.00 Build 0)  -->
<!DOCTYPE svg PUBLIC "-//W3C//DTD SVG 1.1//EN" "http://www.w3.org/Graphics/SVG/1.1/DTD/svg11.dtd">
<svg version="1.1" id="Layer_1" xmlns="http://www.w3.org/2000/svg" xmlns:xlink="http://www.w3.org/1999/xlink" x="0px" y="0px"
	 width="18px" height="162px" viewBox="0 0 18 162" enable-background="new 0 0 18 162" xml:space="preserve">
<g id="bg">
</g>
<g id="ui">
	<g>
		<circle fill="#00B7F1" cx="9" cy="27" r="9"/>
		<g>
			<path fill="#FFFFFF" d="M9,32c-0.6,0-1-0.4-1-1v-8c0-0.6,0.4-1,1-1s1,0.4,1,1v8C10,31.6,9.6,32,9,32z"/>
			<path fill="#FFFFFF" d="M13,28H5c-0.6,0-1-0.4-1-1s0.4-1,1-1h8c0.6,0,1,0.4,1,1S13.6,28,13,28z"/>
		</g>
		<circle fill="#00B7F1" cx="9" cy="45" r="9"/>
		<path fill="#FFFFFF" d="M13,46H5c-0.6,0-1-0.4-1-1s0.4-1,1-1h8c0.6,0,1,0.4,1,1S13.6,46,13,46z"/>
		<circle fill="#00B7F1" cx="9" cy="9" r="9"/>
		<path fill="#FFFFFF" d="M5.9,12.2V5.8c0-0.8,0.8-1.3,1.5-0.9l5.5,3.2c0.7,0.4,0.7,1.3,0,1.7L7.4,13C6.8,13.5,5.9,13,5.9,12.2z"/>
		<circle fill="#828D94" cx="9" cy="81" r="9"/>
		<g>
			<path fill="#FFFFFF" d="M9,86c-0.6,0-1-0.4-1-1v-8c0-0.6,0.4-1,1-1s1,0.4,1,1v8C10,85.6,9.6,86,9,86z"/>
			<path fill="#FFFFFF" d="M13,82H5c-0.6,0-1-0.4-1-1s0.4-1,1-1h8c0.6,0,1,0.4,1,1S13.6,82,13,82z"/>
		</g>
		<circle fill="#828D94" cx="9" cy="99" r="9"/>
		<path fill="#FFFFFF" d="M13,100H5c-0.6,0-1-0.4-1-1s0.4-1,1-1h8c0.6,0,1,0.4,1,1S13.6,100,13,100z"/>
		<circle fill="#828D94" cx="9" cy="63" r="9"/>
		<path fill="#FFFFFF" d="M5.9,66.2v-6.4c0-0.8,0.8-1.3,1.5-0.9l5.5,3.2c0.7,0.4,0.7,1.3,0,1.7L7.4,67C6.8,67.5,5.9,67,5.9,66.2z"/>
		<g>
			<circle fill="#009CD7" cx="9" cy="135" r="9"/>
			<path fill="#FFFFFF" d="M13,134h-3v-3c0-0.6-0.4-1-1-1s-1,0.4-1,1v3H5c-0.6,0-1,0.4-1,1s0.4,1,1,1h3v3c0,0.6,0.4,1,1,1s1-0.4,1-1
				v-3h3c0.6,0,1-0.4,1-1S13.6,134,13,134z"/>
		</g>
		<g>
			<circle fill="#2E414D" cx="9" cy="153" r="9"/>
			<path fill="#FFFFFF" d="M13,154H5c-0.6,0-1-0.4-1-1c0-0.6,0.4-1,1-1h8c0.6,0,1,0.4,1,1C14,153.6,13.6,154,13,154z"/>
		</g>
		<circle fill="#009CD7" cx="9" cy="117" r="9"/>
		<path fill="#FFFFFF" d="M5.9,120.2v-6.4c0-0.8,0.8-1.3,1.5-0.9l5.5,3.2c0.7,0.4,0.7,1.3,0,1.7L7.4,121
			C6.8,121.5,5.9,121,5.9,120.2z"/>
	</g>
</g>
</svg>
