<?xml version="1.0" encoding="utf-8"?>
<!-- Generator: Adobe Illustrator 18.0.0, SVG Export Plug-In . SVG Version: 6.00 Build 0)  -->
<!DOCTYPE svg PUBLIC "-//W3C//DTD SVG 1.1//EN" "http://www.w3.org/Graphics/SVG/1.1/DTD/svg11.dtd">
<svg version="1.1" id="Layer_1" xmlns="http://www.w3.org/2000/svg" xmlns:xlink="http://www.w3.org/1999/xlink" x="0px" y="0px"
	 width="37.5px" height="17.9px" viewBox="0 0 37.5 17.9" enable-background="new 0 0 37.5 17.9" xml:space="preserve">
<g>
	<path fill="#00B7F1" d="M10.3,0.6l2.1,4.3c0.1,0.3,0.4,0.5,0.8,0.5l4.7,0.7c0.8,0.1,1.1,1.1,0.6,1.7L15,11.1
		c-0.2,0.2-0.3,0.6-0.3,0.9l0.8,4.7c0.1,0.8-0.7,1.4-1.5,1.1l-4.2-2.2c-0.3-0.2-0.6-0.2-0.9,0l-4.2,2.2c-0.7,0.4-1.6-0.2-1.5-1.1
		L4,12c0.1-0.3-0.1-0.7-0.3-0.9L0.3,7.8C-0.3,7.2,0,6.2,0.9,6.1l4.7-0.7c0.3,0,0.6-0.3,0.8-0.5l2.1-4.3C8.8-0.2,9.9-0.2,10.3,0.6z"
		/>
	<path fill="#D5D9DB" d="M29,0.6l2.1,4.3c0.1,0.3,0.4,0.5,0.8,0.5l4.7,0.7c0.8,0.1,1.1,1.1,0.6,1.7l-3.4,3.3
		c-0.2,0.2-0.3,0.6-0.3,0.9l0.8,4.7c0.1,0.8-0.7,1.4-1.5,1.1l-4.2-2.2c-0.3-0.2-0.6-0.2-0.9,0l-4.2,2.2c-0.7,0.4-1.6-0.2-1.5-1.1
		l0.8-4.7c0.1-0.3-0.1-0.7-0.3-0.9L19,7.8c-0.6-0.6-0.3-1.6,0.6-1.7l4.7-0.7c0.3,0,0.6-0.3,0.8-0.5l2.1-4.3
		C27.6-0.2,28.6-0.2,29,0.6z"/>
</g>
</svg>
