<?xml version="1.0" encoding="utf-8"?>
<!-- Generator: Adobe Illustrator 17.1.0, SVG Export Plug-In . SVG Version: 6.00 Build 0)  -->
<!DOCTYPE svg PUBLIC "-//W3C//DTD SVG 1.1//EN" "http://www.w3.org/Graphics/SVG/1.1/DTD/svg11.dtd">
<svg version="1.1" xmlns="http://www.w3.org/2000/svg" xmlns:xlink="http://www.w3.org/1999/xlink" x="0px" y="0px" width="245px"
	 height="41px" viewBox="0 0 245 41" enable-background="new 0 0 245 41" xml:space="preserve">
<g id="bg">
</g>
<g id="frame">
</g>
<g id="ui">
</g>
<g id="Layer_4">
	<g>
		<g>
			<path fill="#231F20" d="M245,35.5c0,3.1-2.5,5.5-5.5,5.5h-111c-3.1,0-5.5-2.5-5.5-5.5V5.5c0-3.1,2.5-5.5,5.5-5.5h111
				c3.1,0,5.5,2.5,5.5,5.5V35.5z"/>
			<g id="PLAY_1_">
				<defs>
					<path id="SVGID_567_" d="M147.1,18l-5.6-3.3c0,0-10.3-5.9-10.9-6.3c-0.6-0.3-1.2-0.1-1.2,0.6c0,1.2,0,12.7,0,12.7s0,12.4,0,13
						c0,0.5,0.4,0.8,1,0.5c0.5-0.3,11.1-6.4,11.1-6.4l5.6-3.3c0,0,4.8-2.8,5.4-3.1c0.6-0.4,0.6-0.9,0-1.2
						C152,20.9,147.1,18,147.1,18z"/>
				</defs>
				<clipPath id="SVGID_2_">
					<use xlink:href="#SVGID_567_"  overflow="visible"/>
				</clipPath>
				<linearGradient id="SVGID_4_" gradientUnits="userSpaceOnUse" x1="136.3625" y1="7.8934" x2="136.3625" y2="35.6584">
					<stop  offset="0" style="stop-color:#257DB0"/>
					<stop  offset="0.208" style="stop-color:#3C90B3"/>
					<stop  offset="0.7416" style="stop-color:#73BDB9"/>
					<stop  offset="1" style="stop-color:#89CEBC"/>
				</linearGradient>
				<polygon clip-path="url(#SVGID_2_)" fill="url(#SVGID_4_)" points="129.4,7.9 129.4,21.8 129.4,35.7 143.3,21.8 				"/>
				<linearGradient id="SVGID_6_" gradientUnits="userSpaceOnUse" x1="129.3814" y1="14.7842" x2="147.0937" y2="14.7842">
					<stop  offset="0" style="stop-color:#51BFAC"/>
					<stop  offset="1" style="stop-color:#DEE899"/>
				</linearGradient>
				<polygon clip-path="url(#SVGID_2_)" fill="url(#SVGID_6_)" points="147.1,18 141.5,14.8 129.4,7.8 129.4,7.9 143.3,21.8 				"/>
				<linearGradient id="SVGID_8_" gradientUnits="userSpaceOnUse" x1="138.2374" y1="21.7761" x2="138.2374" y2="35.7594">
					<stop  offset="0" style="stop-color:#EB403D"/>
					<stop  offset="0.1937" style="stop-color:#D64252"/>
					<stop  offset="0.7369" style="stop-color:#9F4887"/>
					<stop  offset="1" style="stop-color:#894A9C"/>
				</linearGradient>
				<polygon clip-path="url(#SVGID_2_)" fill="url(#SVGID_8_)" points="129.4,35.7 129.4,35.8 141.5,28.8 147.1,25.5 143.3,21.8 
									"/>
				<linearGradient id="SVGID_9_" gradientUnits="userSpaceOnUse" x1="148.439" y1="18.0472" x2="148.439" y2="25.5045">
					<stop  offset="0" style="stop-color:#F48779"/>
					<stop  offset="0.6121" style="stop-color:#FAB076"/>
					<stop  offset="1" style="stop-color:#FDC674"/>
				</linearGradient>
				<polygon clip-path="url(#SVGID_2_)" fill="url(#SVGID_9_)" points="147.1,18 143.3,21.8 147.1,25.5 153.5,21.8 				"/>
			</g>
			<g>
				<path fill="#F9F9F9" d="M217.3,27.2c-0.5,0-1-0.1-1.4-0.3c-0.4-0.2-0.8-0.5-1.1-0.9h-0.1c0.1,0.5,0.1,0.9,0.1,1.3v3.3h-1.2V19h1
					l0.2,1.1h0.1c0.3-0.4,0.7-0.8,1.1-1c0.4-0.2,0.9-0.3,1.4-0.3c1.1,0,1.9,0.4,2.5,1.1c0.6,0.7,0.9,1.8,0.9,3.1
					c0,1.3-0.3,2.4-0.9,3.1C219.1,26.8,218.3,27.2,217.3,27.2z M217.1,19.9c-0.8,0-1.4,0.2-1.8,0.7c-0.4,0.5-0.6,1.2-0.6,2.2V23
					c0,1.1,0.2,1.9,0.6,2.4c0.4,0.5,1,0.7,1.8,0.7c0.7,0,1.2-0.3,1.6-0.8c0.4-0.6,0.6-1.3,0.6-2.3c0-1-0.2-1.8-0.6-2.3
					C218.4,20.1,217.8,19.9,217.1,19.9z"/>
				<path fill="#F9F9F9" d="M223.4,27.1h-1.2V15.6h1.2V27.1z"/>
				<path fill="#F9F9F9" d="M230.5,27.1l-0.2-1.1h-0.1c-0.4,0.5-0.8,0.8-1.2,1c-0.4,0.2-0.9,0.3-1.5,0.3c-0.8,0-1.4-0.2-1.9-0.6
					c-0.5-0.4-0.7-1-0.7-1.8c0-1.6,1.3-2.5,3.9-2.6l1.4,0v-0.5c0-0.6-0.1-1.1-0.4-1.4c-0.3-0.3-0.7-0.5-1.3-0.5
					c-0.7,0-1.4,0.2-2.3,0.6l-0.4-0.9c0.4-0.2,0.8-0.4,1.3-0.5c0.5-0.1,0.9-0.2,1.4-0.2c1,0,1.7,0.2,2.1,0.6
					c0.5,0.4,0.7,1.1,0.7,2.1v5.5H230.5z M227.7,26.2c0.8,0,1.4-0.2,1.8-0.6c0.4-0.4,0.7-1,0.7-1.8v-0.7l-1.2,0.1
					c-1,0-1.7,0.2-2.1,0.5c-0.4,0.3-0.6,0.7-0.6,1.2c0,0.4,0.1,0.8,0.4,1C226.9,26.1,227.2,26.2,227.7,26.2z"/>
				<path fill="#F9F9F9" d="M232.1,19h1.3l1.8,4.6c0.4,1.1,0.6,1.8,0.7,2.3h0.1c0.1-0.3,0.2-0.7,0.4-1.3c0.2-0.6,0.9-2.5,2-5.6h1.3
					l-3.5,9.2c-0.3,0.9-0.7,1.6-1.2,1.9c-0.5,0.4-1,0.6-1.7,0.6c-0.4,0-0.7,0-1.1-0.1v-1c0.3,0.1,0.6,0.1,0.9,0.1
					c0.8,0,1.4-0.5,1.8-1.4l0.4-1.1L232.1,19z"/>
			</g>
			<g>
				<path fill="#F9F9F9" d="M194.7,19.7c0.4,0.3,1.2,1,1.2,2.3c0,1.2-0.7,1.8-1.4,2.4c-0.2,0.2-0.5,0.5-0.5,0.8
					c0,0.4,0.3,0.6,0.4,0.7l0.6,0.5c0.7,0.6,1.4,1.2,1.4,2.4c0,1.6-1.5,3.2-4.4,3.2c-2.4,0-3.6-1.2-3.6-2.4c0-0.6,0.3-1.5,1.3-2.1
					c1-0.6,2.5-0.7,3.2-0.8c-0.2-0.3-0.5-0.6-0.5-1.1c0-0.3,0.1-0.5,0.2-0.7c-0.2,0-0.4,0-0.5,0c-1.8,0-2.8-1.3-2.8-2.7
					c0-0.8,0.4-1.6,1.1-2.3c1-0.8,2.1-0.9,3-0.9h3.5l-1.1,0.6H194.7z M193.5,27.2c-0.1,0-0.2,0-0.4,0c-0.2,0-1.1,0-1.8,0.3
					c-0.4,0.1-1.4,0.5-1.4,1.7c0,1.2,1.2,2.1,3,2.1c1.6,0,2.5-0.8,2.5-1.8C195.3,28.6,194.8,28.1,193.5,27.2z M194,24
					c0.4-0.4,0.4-0.9,0.4-1.2c0-1.2-0.7-3.1-2.1-3.1c-0.4,0-0.9,0.2-1.2,0.6c-0.3,0.4-0.4,0.8-0.4,1.2c0,1.1,0.7,3,2.1,3
					C193.3,24.5,193.7,24.3,194,24z"/>
				<path fill="#F9F9F9" d="M184.1,27c-2.7,0-4.1-2.1-4.1-4c0-2.2,1.8-4.1,4.4-4.1c2.5,0,4,1.9,4,4C188.4,24.9,186.8,27,184.1,27z
					 M186.2,25.6c0.4-0.5,0.5-1.2,0.5-1.9c0-1.5-0.7-4.3-2.8-4.3c-0.6,0-1.1,0.2-1.5,0.6c-0.7,0.6-0.8,1.3-0.8,2.1
					c0,1.7,0.8,4.4,2.9,4.4C185.1,26.5,185.8,26.1,186.2,25.6z"/>
				<path fill="#F9F9F9" d="M175,27c-2.7,0-4.1-2.1-4.1-4c0-2.2,1.8-4.1,4.4-4.1c2.5,0,4,1.9,4,4C179.2,24.9,177.7,27,175,27z
					 M177.1,25.6c0.4-0.5,0.5-1.2,0.5-1.9c0-1.5-0.7-4.3-2.8-4.3c-0.6,0-1.1,0.2-1.5,0.6c-0.7,0.6-0.8,1.3-0.8,2.1
					c0,1.7,0.8,4.4,2.9,4.4C176,26.5,176.7,26.1,177.1,25.6z"/>
				<path fill="#F9F9F9" d="M169.6,26.7l-2.4,0.6c-1,0.2-1.9,0.3-2.8,0.3c-4.7,0-6.4-3.4-6.4-6.1c0-3.3,2.5-6.3,6.8-6.3
					c0.9,0,1.8,0.1,2.6,0.4c1.3,0.4,1.9,0.8,2.2,1.1l-1.4,1.3l-0.6,0.1l0.4-0.7c-0.6-0.6-1.6-1.6-3.6-1.6c-2.7,0-4.7,2-4.7,5
					c0,3.2,2.3,6.2,6,6.2c1.1,0,1.6-0.2,2.1-0.4v-2.7l-2.6,0.1l1.4-0.7h3.6l-0.4,0.4c-0.1,0.1-0.1,0.1-0.2,0.3c0,0.2,0,0.6,0,0.8
					V26.7z"/>
				<path fill="#F9F9F9" d="M200,26.2c-0.6-0.1-0.7-0.2-0.7-0.8v-0.2v-9.4c0,0,0-0.1,0-0.1c0.1-0.6,0.2-0.7,0.8-1h-2.4l-1.3,0.6h1.3
					v0l0,0v9.9v0.6c0,0.3-0.1,0.4-0.5,0.9h3l0.6-0.4C200.6,26.3,200.3,26.2,200,26.2z"/>
				<path fill="#F9F9F9" d="M206.9,26.4c-0.2,0.1-0.4,0.2-0.6,0.3c-0.6,0.3-1.1,0.3-1.6,0.3c-0.5,0-1.4,0-2.2-0.7
					c-1.2-0.8-1.7-2.3-1.7-3.6c0-2.6,2.1-3.9,3.8-3.9c0.6,0,1.2,0.2,1.7,0.5c0.8,0.6,1.1,1.3,1.2,1.7l-3.9,1.6l-1.3,0.1
					c0.4,2.1,1.9,3.4,3.5,3.4c0.9,0,1.5-0.3,2-0.6L206.9,26.4z M205.3,21.3c0.3-0.1,0.5-0.2,0.5-0.5c0-0.7-0.8-1.4-1.7-1.4
					c-0.7,0-1.9,0.5-1.9,2.3c0,0.3,0,0.6,0.1,0.9L205.3,21.3z"/>
				<g>
					<path fill="#F9F9F9" d="M208.5,19v1.1h-0.1V19H208v-0.1h0.9V19H208.5z"/>
					<path fill="#F9F9F9" d="M210,20.1V19h0l-0.3,1.1h-0.1l-0.3-1.1h0v1.1h-0.1v-1.2h0.2l0.3,1h0l0.3-1h0.2v1.2H210z"/>
				</g>
			</g>
			<g>
				<path fill="#F9F9F9" d="M161.3,11.8h-0.8c0-0.1-0.1-0.4-0.2-1H159c-0.2,0.5-0.2,0.9-0.2,1H158c0-0.1,0.2-0.6,0.6-1.7
					c0.4-1.1,0.6-1.6,0.6-1.7h1c0,0.1,0.2,0.7,0.6,1.7C161.1,11.1,161.3,11.7,161.3,11.8z M160.1,10.3c-0.3-0.9-0.4-1.4-0.4-1.5h0
					c0,0.1-0.2,0.6-0.5,1.5H160.1z"/>
				<path fill="#F9F9F9" d="M164.7,11.8H164c0-0.1-0.2-0.5-0.7-1.1c-0.5-0.7-0.8-1.2-0.9-1.5h0c0,0.4,0.1,0.7,0.1,1c0,0.4,0,1,0,1.6
					h-0.6c0-0.5,0-1.1,0-1.8c0-0.6,0-1.2,0-1.6h0.8c0,0.1,0.2,0.5,0.6,1.1c0.5,0.7,0.7,1.2,0.8,1.4h0c0-0.4-0.1-0.7-0.1-1.1
					c0-0.5,0-1,0-1.5h0.7c0,0.4,0,1,0,1.6C164.6,10.6,164.7,11.2,164.7,11.8z"/>
				<path fill="#F9F9F9" d="M168.5,9.9c0,0.5-0.2,0.9-0.5,1.3c-0.3,0.4-0.8,0.6-1.3,0.6c-0.3,0-0.6,0-1.1,0c0-0.5,0-1.1,0-1.8
					c0-0.6,0-1.2,0-1.6h0.5c0.1,0,0.2,0,0.3,0c0.1,0,0.2,0,0.3,0c0.6,0,1.1,0.2,1.4,0.5C168.3,9.1,168.5,9.5,168.5,9.9z M167.8,10
					c0-0.3-0.1-0.6-0.3-0.9c-0.2-0.2-0.5-0.3-0.9-0.3c-0.1,0-0.2,0-0.3,0c0,0.4,0,0.7,0,1.1c0,0.4,0,0.8,0,1.2c0.1,0,0.2,0,0.3,0
					c0.4,0,0.7-0.1,0.8-0.4C167.7,10.7,167.8,10.4,167.8,10z"/>
				<path fill="#F9F9F9" d="M172,11.8h-0.8c-0.2-0.6-0.4-1-0.5-1.2c-0.1-0.1-0.3-0.2-0.5-0.2c-0.1,0-0.2,0-0.3,0c0,0.5,0,0.9,0,1.4
					h-0.7c0-0.5,0-1.1,0-1.8c0-0.6,0-1.2,0-1.6h0.5c0.1,0,0.2,0,0.3,0c0.2,0,0.3,0,0.5,0c0.8,0,1.2,0.3,1.2,0.8
					c0,0.4-0.2,0.7-0.7,0.9v0c0.2,0,0.3,0.2,0.5,0.4C171.6,10.7,171.8,11.2,172,11.8z M171,9.3c0-0.3-0.2-0.5-0.7-0.5
					c-0.2,0-0.3,0-0.4,0c0,0.3,0,0.6,0,1.1c0.1,0,0.2,0,0.2,0C170.7,9.9,171,9.7,171,9.3z"/>
				<path fill="#F9F9F9" d="M175.8,10c0,0.5-0.2,1-0.5,1.3c-0.3,0.4-0.7,0.5-1.2,0.5c-0.5,0-0.8-0.2-1.2-0.5
					c-0.3-0.3-0.5-0.7-0.5-1.2c0-0.5,0.2-1,0.5-1.3c0.3-0.4,0.7-0.5,1.2-0.5c0.5,0,0.8,0.2,1.2,0.5C175.6,9.1,175.8,9.5,175.8,10z
					 M175,10.1c0-0.4-0.1-0.7-0.3-0.9c-0.2-0.2-0.4-0.3-0.7-0.3c-0.3,0-0.5,0.1-0.7,0.3c-0.2,0.2-0.3,0.5-0.3,0.9
					c0,0.4,0.1,0.7,0.3,0.9c0.2,0.2,0.4,0.3,0.7,0.3c0.3,0,0.5-0.1,0.7-0.3C174.9,10.7,175,10.4,175,10.1z"/>
				<path fill="#F9F9F9" d="M177.2,11.8h-0.7c0-0.5,0-1.1,0-1.8c0-0.6,0-1.2,0-1.6h0.7c0,0.4,0,1,0,1.6
					C177.2,10.6,177.2,11.2,177.2,11.8z"/>
				<path fill="#F9F9F9" d="M181,9.9c0,0.5-0.2,0.9-0.5,1.3c-0.3,0.4-0.8,0.6-1.3,0.6c-0.3,0-0.6,0-1.1,0c0-0.5,0-1.1,0-1.8
					c0-0.6,0-1.2,0-1.6h0.5c0.1,0,0.2,0,0.3,0c0.1,0,0.2,0,0.3,0c0.6,0,1.1,0.2,1.4,0.5C180.9,9.1,181,9.5,181,9.9z M180.3,10
					c0-0.3-0.1-0.6-0.3-0.9c-0.2-0.2-0.5-0.3-0.9-0.3c-0.1,0-0.2,0-0.3,0c0,0.4,0,0.7,0,1.1c0,0.4,0,0.8,0,1.2c0.1,0,0.2,0,0.3,0
					c0.4,0,0.7-0.1,0.8-0.4C180.2,10.7,180.3,10.4,180.3,10z"/>
				<path fill="#F9F9F9" d="M186.1,11.8h-0.8c0-0.1-0.1-0.4-0.2-1h-1.2c-0.2,0.5-0.2,0.9-0.2,1h-0.8c0-0.1,0.2-0.6,0.6-1.7
					c0.4-1.1,0.6-1.6,0.6-1.7h1c0,0.1,0.2,0.7,0.6,1.7C185.9,11.1,186.1,11.7,186.1,11.8z M184.9,10.3c-0.3-0.9-0.4-1.4-0.4-1.5h0
					c0,0.1-0.2,0.6-0.5,1.5H184.9z"/>
				<path fill="#F9F9F9" d="M189.2,9.2c0,0.4-0.2,0.7-0.5,0.9c-0.3,0.2-0.7,0.3-1.1,0.3c-0.1,0-0.1,0-0.2,0c0,0.3,0,0.8,0,1.3h-0.7
					c0-0.5,0-1.1,0-1.8c0-0.6,0-1.2,0-1.6h0.5c0.1,0,0.2,0,0.4,0c0.2,0,0.3,0,0.5,0c0.3,0,0.6,0.1,0.8,0.2
					C189,8.7,189.2,8.9,189.2,9.2z M188.5,9.4c0-0.4-0.2-0.6-0.7-0.6c-0.1,0-0.3,0-0.4,0c0,0.3,0,0.7,0,1.1c0,0,0.1,0,0.2,0
					C188.2,10,188.5,9.8,188.5,9.4z"/>
				<path fill="#F9F9F9" d="M192.3,9.2c0,0.4-0.2,0.7-0.5,0.9c-0.3,0.2-0.7,0.3-1.1,0.3c-0.1,0-0.1,0-0.2,0c0,0.3,0,0.8,0,1.3h-0.7
					c0-0.5,0-1.1,0-1.8c0-0.6,0-1.2,0-1.6h0.5c0.1,0,0.2,0,0.4,0c0.2,0,0.3,0,0.5,0c0.3,0,0.6,0.1,0.8,0.2
					C192.2,8.7,192.3,8.9,192.3,9.2z M191.6,9.4c0-0.4-0.2-0.6-0.7-0.6c-0.1,0-0.3,0-0.4,0c0,0.3,0,0.7,0,1.1c0,0,0.1,0,0.2,0
					C191.3,10,191.6,9.8,191.6,9.4z"/>
				<path fill="#F9F9F9" d="M197.5,10c0,0.5-0.2,1-0.5,1.3c-0.3,0.4-0.7,0.5-1.2,0.5c-0.5,0-0.8-0.2-1.2-0.5
					c-0.3-0.3-0.5-0.7-0.5-1.2c0-0.5,0.2-1,0.5-1.3c0.3-0.4,0.7-0.5,1.2-0.5c0.5,0,0.8,0.2,1.2,0.5C197.3,9.1,197.5,9.5,197.5,10z
					 M196.7,10.1c0-0.4-0.1-0.7-0.3-0.9c-0.2-0.2-0.4-0.3-0.7-0.3c-0.3,0-0.5,0.1-0.7,0.3c-0.2,0.2-0.3,0.5-0.3,0.9
					c0,0.4,0.1,0.7,0.3,0.9c0.2,0.2,0.4,0.3,0.7,0.3c0.3,0,0.5-0.1,0.7-0.3C196.6,10.7,196.7,10.4,196.7,10.1z"/>
				<path fill="#F9F9F9" d="M201,11.8h-0.6c0-0.1-0.2-0.5-0.7-1.1c-0.5-0.7-0.8-1.2-0.9-1.5h0c0,0.4,0.1,0.7,0.1,1c0,0.4,0,1,0,1.6
					h-0.6c0-0.5,0-1.1,0-1.8c0-0.6,0-1.2,0-1.6h0.8c0,0.1,0.2,0.5,0.6,1.1c0.5,0.7,0.7,1.2,0.8,1.4h0c0-0.4-0.1-0.7-0.1-1.1
					c0-0.5,0-1,0-1.5h0.7c0,0.4,0,1,0,1.6C201,10.6,201,11.2,201,11.8z"/>
			</g>
		</g>
		<g>
			<path fill="#231F20" d="M122,36.9c0,2.3-1.8,4.1-4.1,4.1H4.1C1.8,41,0,39.2,0,36.9V4.1C0,1.8,1.8,0,4.1,0h113.8
				c2.3,0,4.1,1.8,4.1,4.1L122,36.9L122,36.9z"/>
			<g>
				<g>
					<path fill="#FFFFFF" d="M23.4,20.3c0-3.5,2.8-5.1,3-5.2c-1.6-2.4-4.1-2.7-5-2.7c-2.1-0.2-4.2,1.3-5.2,1.3
						c-1.1,0-2.8-1.2-4.5-1.2c-2.3,0-4.4,1.4-5.6,3.4C3.5,20,5.3,26.2,7.6,29.6c1.2,1.7,2.5,3.5,4.3,3.5c1.7-0.1,2.4-1.1,4.5-1.1
						c2.1,0,2.7,1.1,4.5,1.1c1.9,0,3.1-1.7,4.2-3.4c1.3-1.9,1.9-3.8,1.9-3.9C27,25.8,23.4,24.4,23.4,20.3z"/>
					<path fill="#FFFFFF" d="M20,10.1c0.9-1.2,1.6-2.8,1.4-4.4c-1.4,0.1-3.1,0.9-4,2.1c-0.9,1-1.6,2.7-1.4,4.2
						C17.4,12.1,19,11.3,20,10.1z"/>
				</g>
			</g>
			<g>
				<path fill="#FFFFFF" d="M42.6,32.9h-2.4l-1.3-4.2h-4.6L33,32.9h-2.4l4.6-14.3H38L42.6,32.9z M38.5,26.9l-1.2-3.7
					c-0.1-0.4-0.4-1.3-0.7-2.7h0c-0.1,0.6-0.4,1.5-0.7,2.7l-1.2,3.7H38.5z"/>
				<path fill="#FFFFFF" d="M54.5,27.6c0,1.8-0.5,3.1-1.4,4.2c-0.8,0.9-1.9,1.4-3.2,1.4c-1.4,0-2.3-0.5-2.9-1.5h0V37h-2.3V25.9
					c0-1.1,0-2.2-0.1-3.4h2l0.1,1.6h0c0.8-1.2,1.9-1.8,3.5-1.8c1.2,0,2.2,0.5,3,1.4C54.1,24.7,54.5,26,54.5,27.6z M52.2,27.7
					c0-1-0.2-1.8-0.7-2.5c-0.5-0.7-1.2-1-2-1c-0.6,0-1.1,0.2-1.5,0.6c-0.5,0.4-0.8,0.9-0.9,1.5c-0.1,0.3-0.1,0.5-0.1,0.7v1.7
					c0,0.7,0.2,1.4,0.7,1.9s1.1,0.8,1.8,0.8c0.9,0,1.5-0.3,2-1C51.9,29.6,52.2,28.7,52.2,27.7z"/>
				<path fill="#FFFFFF" d="M66.3,27.6c0,1.8-0.5,3.1-1.4,4.2c-0.8,0.9-1.9,1.4-3.2,1.4c-1.4,0-2.3-0.5-2.9-1.5h0V37h-2.3V25.9
					c0-1.1,0-2.2-0.1-3.4h2l0.1,1.6h0c0.8-1.2,1.9-1.8,3.5-1.8c1.2,0,2.2,0.5,3,1.4C65.9,24.7,66.3,26,66.3,27.6z M64,27.7
					c0-1-0.2-1.8-0.7-2.5c-0.5-0.7-1.2-1-2-1c-0.6,0-1.1,0.2-1.5,0.6c-0.5,0.4-0.8,0.9-0.9,1.5c-0.1,0.3-0.1,0.5-0.1,0.7v1.7
					c0,0.7,0.2,1.4,0.7,1.9c0.5,0.5,1.1,0.8,1.8,0.8c0.9,0,1.5-0.3,2-1C63.8,29.6,64,28.7,64,27.7z"/>
				<path fill="#FFFFFF" d="M79.6,28.8c0,1.2-0.4,2.2-1.3,3c-0.9,0.8-2.2,1.3-3.9,1.3c-1.5,0-2.8-0.3-3.7-0.9l0.5-1.9
					c1,0.6,2.1,0.9,3.3,0.9c0.9,0,1.5-0.2,2-0.6c0.5-0.4,0.7-0.9,0.7-1.6c0-0.6-0.2-1.1-0.6-1.5c-0.4-0.4-1.1-0.8-2-1.1
					c-2.5-0.9-3.8-2.3-3.8-4.1c0-1.2,0.4-2.1,1.3-2.9c0.9-0.8,2-1.1,3.5-1.1c1.3,0,2.4,0.2,3.2,0.7l-0.6,1.9
					c-0.8-0.4-1.7-0.7-2.7-0.7c-0.8,0-1.4,0.2-1.9,0.6c-0.4,0.4-0.6,0.8-0.6,1.3c0,0.6,0.2,1,0.7,1.4c0.4,0.3,1.1,0.7,2.1,1.1
					c1.2,0.5,2.1,1.1,2.7,1.7C79.3,27,79.6,27.9,79.6,28.8z"/>
				<path fill="#FFFFFF" d="M87.2,24.3h-2.5v5c0,1.3,0.4,1.9,1.3,1.9c0.4,0,0.7,0,1-0.1l0.1,1.7c-0.5,0.2-1,0.3-1.8,0.3
					c-0.9,0-1.6-0.3-2.1-0.8c-0.5-0.6-0.8-1.5-0.8-2.8v-5.2h-1.5v-1.7h1.5v-1.9l2.2-0.7v2.6h2.5L87.2,24.3z"/>
				<path fill="#FFFFFF" d="M98.6,27.6c0,1.6-0.5,2.9-1.4,3.9c-0.9,1-2.2,1.6-3.8,1.6c-1.5,0-2.7-0.5-3.6-1.5
					c-0.9-1-1.3-2.3-1.3-3.8c0-1.6,0.5-2.9,1.4-3.9c0.9-1,2.2-1.5,3.7-1.5c1.5,0,2.7,0.5,3.6,1.5C98.1,24.8,98.6,26.1,98.6,27.6z
					 M96.2,27.7c0-0.9-0.2-1.8-0.6-2.4c-0.5-0.8-1.2-1.2-2.1-1.2c-0.9,0-1.6,0.4-2.1,1.2c-0.4,0.7-0.6,1.5-0.6,2.5
					c0,0.9,0.2,1.8,0.6,2.4c0.5,0.8,1.2,1.2,2.1,1.2c0.9,0,1.6-0.4,2.1-1.3C96,29.5,96.2,28.6,96.2,27.7z"/>
				<path fill="#FFFFFF" d="M106,24.6c-0.2,0-0.5-0.1-0.7-0.1c-0.8,0-1.4,0.3-1.9,0.9c-0.4,0.5-0.6,1.2-0.6,2v5.4h-2.3l0-7.1
					c0-1.2,0-2.3-0.1-3.2h2l0.1,2h0.1c0.2-0.7,0.6-1.2,1.1-1.6c0.5-0.4,1.1-0.6,1.7-0.6c0.2,0,0.4,0,0.6,0L106,24.6z"/>
				<path fill="#FFFFFF" d="M116.3,27.2c0,0.4,0,0.8-0.1,1h-6.9c0,1,0.4,1.8,1,2.3c0.6,0.5,1.3,0.7,2.2,0.7c1,0,1.9-0.2,2.8-0.5
					l0.4,1.6c-1,0.4-2.1,0.6-3.5,0.6c-1.6,0-2.9-0.5-3.8-1.4c-0.9-0.9-1.4-2.2-1.4-3.8c0-1.6,0.4-2.8,1.3-3.9
					c0.9-1.1,2.1-1.7,3.6-1.7c1.5,0,2.6,0.6,3.4,1.7C116,24.8,116.3,25.9,116.3,27.2z M114.1,26.6c0-0.7-0.1-1.3-0.4-1.8
					c-0.4-0.6-1-1-1.8-1c-0.7,0-1.4,0.3-1.8,0.9c-0.4,0.5-0.6,1.1-0.7,1.8L114.1,26.6L114.1,26.6z"/>
			</g>
			<g>
				<g>
					<path fill="#FFFFFF" d="M37.7,9.8c0,1.3-0.4,2.2-1.1,2.9c-0.7,0.6-1.7,0.9-3,0.9c-0.6,0-1.2,0-1.6-0.1V6.5
						c0.6-0.1,1.2-0.1,1.9-0.1c1.2,0,2.2,0.3,2.8,0.8C37.4,7.8,37.7,8.7,37.7,9.8z M36.5,9.8c0-0.8-0.2-1.4-0.7-1.9
						c-0.4-0.4-1.1-0.7-1.9-0.7c-0.4,0-0.7,0-0.9,0.1v5.2c0.1,0,0.4,0,0.8,0c0.9,0,1.5-0.2,2-0.7S36.5,10.7,36.5,9.8z"/>
					<path fill="#FFFFFF" d="M44,10.9c0,0.8-0.2,1.4-0.7,1.9c-0.5,0.5-1.1,0.8-1.9,0.8c-0.7,0-1.3-0.2-1.8-0.7
						C39.3,12.3,39,11.7,39,11c0-0.8,0.2-1.4,0.7-1.9c0.5-0.5,1.1-0.7,1.8-0.7c0.7,0,1.3,0.2,1.8,0.7C43.8,9.5,44,10.1,44,10.9z
						 M42.8,10.9c0-0.5-0.1-0.9-0.3-1.2c-0.2-0.4-0.6-0.6-1-0.6c-0.5,0-0.8,0.2-1,0.6c-0.2,0.3-0.3,0.7-0.3,1.2
						c0,0.5,0.1,0.9,0.3,1.2c0.2,0.4,0.6,0.6,1,0.6c0.4,0,0.8-0.2,1-0.6C42.7,11.8,42.8,11.4,42.8,10.9z"/>
					<path fill="#FFFFFF" d="M52.4,8.4l-1.6,5.1h-1l-0.7-2.2c-0.2-0.5-0.3-1.1-0.4-1.6h0c-0.1,0.6-0.2,1.1-0.4,1.6l-0.7,2.2h-1
						l-1.5-5.1h1.2l0.6,2.4c0.1,0.6,0.3,1.1,0.3,1.6h0c0.1-0.4,0.2-1,0.4-1.6l0.7-2.4h0.9l0.7,2.4c0.2,0.6,0.3,1.1,0.4,1.7h0
						c0.1-0.5,0.2-1.1,0.3-1.7l0.6-2.4L52.4,8.4L52.4,8.4z"/>
					<path fill="#FFFFFF" d="M58.3,13.5h-1.1v-2.9c0-0.9-0.3-1.3-1-1.3c-0.3,0-0.6,0.1-0.8,0.4c-0.2,0.2-0.3,0.5-0.3,0.9v3h-1.1V9.8
						c0-0.4,0-0.9,0-1.4h1l0.1,0.8h0c0.1-0.2,0.3-0.4,0.6-0.6c0.3-0.2,0.6-0.3,1-0.3c0.5,0,0.9,0.2,1.2,0.5c0.4,0.4,0.6,0.9,0.6,1.7
						V13.5z"/>
					<path fill="#FFFFFF" d="M61.4,13.5h-1.1V6.1h1.1V13.5z"/>
					<path fill="#FFFFFF" d="M68,10.9c0,0.8-0.2,1.4-0.7,1.9c-0.5,0.5-1.1,0.8-1.9,0.8c-0.7,0-1.3-0.2-1.8-0.7
						c-0.4-0.5-0.7-1.1-0.7-1.9c0-0.8,0.2-1.4,0.7-1.9c0.5-0.5,1.1-0.7,1.8-0.7c0.7,0,1.3,0.2,1.8,0.7C67.8,9.5,68,10.1,68,10.9z
						 M66.8,10.9c0-0.5-0.1-0.9-0.3-1.2c-0.2-0.4-0.6-0.6-1-0.6c-0.5,0-0.8,0.2-1,0.6c-0.2,0.3-0.3,0.7-0.3,1.2
						c0,0.5,0.1,0.9,0.3,1.2c0.2,0.4,0.6,0.6,1,0.6c0.4,0,0.8-0.2,1-0.6C66.7,11.8,66.8,11.4,66.8,10.9z"/>
					<path fill="#FFFFFF" d="M73.5,13.5h-1l-0.1-0.6h0c-0.3,0.5-0.8,0.7-1.5,0.7c-0.5,0-0.9-0.2-1.2-0.5c-0.3-0.3-0.4-0.6-0.4-1
						c0-0.6,0.3-1.1,0.8-1.4c0.5-0.3,1.2-0.5,2.2-0.5v-0.1c0-0.7-0.4-1-1.1-1c-0.5,0-0.9,0.1-1.3,0.4l-0.2-0.7
						c0.5-0.3,1.1-0.4,1.7-0.4c1.3,0,2,0.7,2,2.1v1.9C73.4,12.8,73.4,13.2,73.5,13.5z M72.3,11.7v-0.8c-1.2,0-1.9,0.3-1.9,1
						c0,0.3,0.1,0.5,0.2,0.6c0.1,0.1,0.3,0.2,0.6,0.2c0.2,0,0.5-0.1,0.7-0.2c0.2-0.2,0.3-0.4,0.4-0.6C72.3,11.9,72.3,11.8,72.3,11.7
						z"/>
					<path fill="#FFFFFF" d="M79.9,13.5h-1l-0.1-0.8h0c-0.3,0.6-0.9,0.9-1.6,0.9c-0.6,0-1.1-0.2-1.5-0.7C75.2,12.4,75,11.8,75,11
						c0-0.8,0.2-1.5,0.7-2c0.4-0.5,0.9-0.7,1.6-0.7c0.7,0,1.2,0.2,1.4,0.7h0V6.1h1.1v6C79.8,12.6,79.8,13,79.9,13.5z M78.7,11.3
						v-0.8c0-0.1,0-0.3,0-0.4c-0.1-0.3-0.2-0.5-0.4-0.7c-0.2-0.2-0.5-0.3-0.8-0.3c-0.4,0-0.7,0.2-1,0.5c-0.2,0.3-0.4,0.8-0.4,1.3
						c0,0.5,0.1,0.9,0.3,1.2c0.2,0.3,0.6,0.5,1,0.5c0.4,0,0.7-0.1,0.9-0.4C78.6,12,78.7,11.7,78.7,11.3z"/>
					<path fill="#FFFFFF" d="M89.5,10.9c0,0.8-0.2,1.4-0.7,1.9c-0.5,0.5-1.1,0.8-1.9,0.8c-0.7,0-1.3-0.2-1.8-0.7
						c-0.4-0.5-0.7-1.1-0.7-1.9c0-0.8,0.2-1.4,0.7-1.9c0.5-0.5,1.1-0.7,1.8-0.7c0.7,0,1.3,0.2,1.8,0.7C89.3,9.5,89.5,10.1,89.5,10.9
						z M88.3,10.9c0-0.5-0.1-0.9-0.3-1.2c-0.2-0.4-0.6-0.6-1-0.6c-0.5,0-0.8,0.2-1,0.6c-0.2,0.3-0.3,0.7-0.3,1.2
						c0,0.5,0.1,0.9,0.3,1.2c0.2,0.4,0.6,0.6,1,0.6c0.4,0,0.8-0.2,1-0.6C88.2,11.8,88.3,11.4,88.3,10.9z"/>
					<path fill="#FFFFFF" d="M95.5,13.5h-1.1v-2.9c0-0.9-0.3-1.3-1-1.3c-0.3,0-0.6,0.1-0.8,0.4c-0.2,0.2-0.3,0.5-0.3,0.9v3h-1.1V9.8
						c0-0.4,0-0.9,0-1.4h1l0.1,0.8h0c0.1-0.2,0.3-0.4,0.6-0.6c0.3-0.2,0.6-0.3,1-0.3c0.5,0,0.9,0.2,1.2,0.5c0.4,0.4,0.6,0.9,0.6,1.7
						V13.5z"/>
					<path fill="#FFFFFF" d="M103.1,9.2h-1.2v2.5c0,0.6,0.2,0.9,0.7,0.9c0.2,0,0.4,0,0.5-0.1l0,0.9c-0.2,0.1-0.5,0.1-0.9,0.1
						c-0.4,0-0.8-0.1-1-0.4c-0.3-0.3-0.4-0.7-0.4-1.4V9.2H100V8.4h0.7V7.5l1.1-0.3v1.3h1.2L103.1,9.2L103.1,9.2z"/>
					<path fill="#FFFFFF" d="M109.1,13.5H108v-2.9c0-0.9-0.3-1.4-1-1.4c-0.5,0-0.9,0.3-1.1,0.8c0,0.1-0.1,0.2-0.1,0.4v3h-1.1V6.1
						h1.1v3h0c0.4-0.6,0.9-0.8,1.5-0.8c0.5,0,0.9,0.2,1.2,0.5c0.4,0.4,0.6,0.9,0.6,1.7L109.1,13.5z"/>
					<path fill="#FFFFFF" d="M115.2,10.7c0,0.2,0,0.4,0,0.5h-3.4c0,0.5,0.2,0.9,0.5,1.1c0.3,0.2,0.7,0.4,1.1,0.4
						c0.5,0,1-0.1,1.4-0.2l0.2,0.8c-0.5,0.2-1,0.3-1.7,0.3c-0.8,0-1.4-0.2-1.8-0.7c-0.4-0.5-0.7-1.1-0.7-1.9c0-0.8,0.2-1.4,0.6-1.9
						c0.4-0.5,1-0.8,1.8-0.8c0.7,0,1.3,0.3,1.7,0.8C115.1,9.5,115.2,10.1,115.2,10.7z M114.2,10.4c0-0.3-0.1-0.6-0.2-0.9
						c-0.2-0.3-0.5-0.5-0.9-0.5c-0.4,0-0.7,0.2-0.9,0.5c-0.2,0.2-0.3,0.5-0.3,0.9L114.2,10.4z"/>
				</g>
			</g>
		</g>
	</g>
</g>
</svg>
