<?xml version="1.0" encoding="utf-8"?>
<!-- Generator: Adobe Illustrator 18.0.0, SVG Export Plug-In . SVG Version: 6.00 Build 0)  -->
<!DOCTYPE svg PUBLIC "-//W3C//DTD SVG 1.1//EN" "http://www.w3.org/Graphics/SVG/1.1/DTD/svg11.dtd">
<svg version="1.1" id="Layer_1" xmlns="http://www.w3.org/2000/svg" xmlns:xlink="http://www.w3.org/1999/xlink" x="0px" y="0px"
	 width="24px" height="50px" viewBox="0 0 24 50" enable-background="new 0 0 24 50" xml:space="preserve">
<g id="bg">
</g>
<path fill="#00B7F1" d="M12,26.5c-6.1,0-11,4.9-11,11s4.9,11,11,11s11-4.9,11-11S18.1,26.5,12,26.5z M17,38l-8,4v-9l8,4V38z"/>
<path fill="#00B7F1" d="M8,11V6c0-2.2,1.8-4,4-4s4,1.8,4,4v1h2V6c0-3.3-2.7-6-6-6S6,2.7,6,6v5H2v14h20V11H8z M13,19.8V22h-2v-2.2
	c-1.2-0.4-2-1.5-2-2.8c0-1.7,1.3-3,3-3s3,1.3,3,3C15,18.3,14.2,19.4,13,19.8z"/>
</svg>
