<?xml version="1.0" encoding="utf-8"?>
<!-- Generator: Adobe Illustrator 18.0.0, SVG Export Plug-In . SVG Version: 6.00 Build 0)  -->
<!DOCTYPE svg PUBLIC "-//W3C//DTD SVG 1.1//EN" "http://www.w3.org/Graphics/SVG/1.1/DTD/svg11.dtd">
<svg version="1.1" id="Layer_1" xmlns="http://www.w3.org/2000/svg" xmlns:xlink="http://www.w3.org/1999/xlink" x="0px" y="0px"
	 width="204px" height="70px" viewBox="0 0 204 70" enable-background="new 0 0 204 70" xml:space="preserve">
<g>
	<g>
		<path opacity="0.5" fill="#F15D2A" d="M203.5,25.6c0,11.8-10.9,21.2-22.7,21.2s-21.4-9.6-21.4-21.4s9.5-22.6,21.4-22.6
			S203.5,13.8,203.5,25.6z"/>
		<path opacity="0.5" fill="#F15D2A" d="M198.9,25.6c0,9.2-8.8,16.5-18,16.5c-9.2,0-16.7-7.5-16.7-16.7s7.4-17.9,16.7-17.9
			S198.9,16.4,198.9,25.6z"/>
		<path fill="#F15D2A" d="M194.2,25.6c0,6.7-6.7,11.9-13.4,11.9c-6.7,0-12.1-5.4-12.1-12.1s5.3-13.2,12-13.2
			C187.4,12.2,194.2,19,194.2,25.6z"/>
		<path opacity="0.75" fill="#00B7F1" d="M171.3,30.6c-2.8-1.3-5.8-1.4-8.5-0.3c-0.4-1.7-1.6-3.2-3.3-4.1c-3.1-1.5-6.9-0.2-8.4,2.9
			c-0.9,1.9-0.8,3.9,0.1,5.6c-1.8,0.7-3.3,2-4.2,3.9c-1.9,3.9-0.8,9.3,3.1,11.2c3,1.5,7,0.3,9.4-1.8c0.7,0.7,1.6,1.2,2.5,1.7
			c5.3,2.6,12.7,0.9,15.3-4.4C179.8,40.1,176.6,33.2,171.3,30.6z"/>
	</g>
	<g>
		<path fill="#003E5C" d="M89.6,11.1l-4.7-4.8l-13,16.9l4,3.2c-0.7,1.1-0.8,2.6-0.4,3.8c0.8,1.9,2.9,2.8,4.8,2.1
			c1.9-0.8,3.2-3,2.5-4.9c-0.1-0.1-0.1-0.3-0.2-0.4c0.3,0,0.7-0.1,1-0.2c1.7-0.7,2.8-2.6,2.2-4.3c-0.1-0.2-0.2-0.4-0.4-0.6
			c0.4,0,0.8-0.1,1.2-0.2c1.7-0.7,2.8-2.6,2.2-4.3c-0.1-0.1-0.1-0.3-0.2-0.4c0,0,0.1,0,0.1,0c1.7-0.7,2.8-2.6,2.2-4.3
			C90.5,11.9,90.1,11.5,89.6,11.1z"/>
		<path fill="#003E5C" d="M44.2,30.4L25.5,20.3l-2.4,6.3c-0.3,0.5-0.5,1.1-0.5,1.7c0.1,1.8,1.9,3.1,3.7,3.1c0,0,0.1,0,0.1,0
			c0,0.2,0,0.3,0,0.5c0.1,1.8,1.9,3.1,3.7,3.1c0.4,0,0.8-0.1,1.2-0.3c-0.1,0.2-0.1,0.5-0.1,0.7c0.1,1.8,1.9,3.1,3.7,3.1
			c0.3,0,0.7-0.1,1-0.2c0,0.2,0,0.3,0,0.5c0.1,2,2.2,3.6,4.2,3.5c2-0.1,3.6-1.8,3.6-3.8C43.7,37,43,35.7,41.9,35L44.2,30.4z"/>
		<g>
			<polygon fill="#003E5C" points="81.8,55.8 48.8,63.6 35.1,10.4 71.7,1.1 			"/>
			<polygon fill="#004E74" points="81,55.3 49.2,62.8 35.9,11.1 71.2,2.1 			"/>
			<path fill="#003E5C" d="M73.9,41.6c1.3,6.3-4,12.6-10.4,14s-12.6-2.7-13.9-9s2.4-13.6,8.8-15S72.6,35.3,73.9,41.6z"/>
			<path fill="#FFFFFF" d="M73.2,41.6c1.3,6-3.8,11.9-9.8,13.2c-6,1.3-11.9-2.5-13.2-8.5s2.3-12.9,8.3-14.2
				C64.5,30.8,71.9,35.6,73.2,41.6z"/>
			<path fill="#2E414D" d="M66.9,42.5c0.6,2.7-1.7,5.5-4.5,6c-2.8,0.6-5.5-1.2-6-3.9c-0.6-2.7,1-5.9,3.8-6.5
				C62.9,37.6,66.3,39.8,66.9,42.5z"/>
			<path fill="#2E414D" d="M54.9,38c0.1,0.6-0.4,1.1-0.9,1.2c-0.6,0.1-1.1-0.2-1.2-0.8c-0.1-0.6,0.2-1.2,0.8-1.3
				C54,37,54.7,37.5,54.9,38z"/>
			<path fill="#2E414D" d="M66.9,35.1c0.1,0.6-0.4,1.1-0.9,1.2c-0.6,0.1-1.1-0.2-1.2-0.8c-0.1-0.6,0.2-1.2,0.8-1.3
				C66,34.1,66.7,34.5,66.9,35.1z"/>
			<path fill="#2E414D" d="M69.8,49.3c0.1,0.6-0.4,1.1-0.9,1.2c-0.6,0.1-1.1-0.2-1.2-0.8c-0.1-0.6,0.2-1.2,0.8-1.3
				C69,48.3,69.7,48.7,69.8,49.3z"/>
			<path fill="#2E414D" d="M58.8,52.1c0.1,0.6-0.4,1.1-0.9,1.2c-0.6,0.1-1.1-0.2-1.2-0.8s0.2-1.2,0.8-1.3
				C58,51.1,58.7,51.6,58.8,52.1z"/>
			<path fill="#003E5C" d="M65.3,18c1,4.5-2.9,9-7.4,10c-4.5,1-9-1.9-10-6.4s1.7-9.7,6.3-10.7S64.3,13.5,65.3,18z"/>
			<path fill="#FFFFFF" d="M64.8,18c0.9,4.3-2.7,8.5-7,9.4c-4.3,0.9-8.5-1.8-9.4-6.1s1.6-9.2,5.9-10.1S63.8,13.7,64.8,18z"/>
			<path fill="#2E414D" d="M60.3,18.7c0.4,2-1.2,3.9-3.2,4.3c-2,0.4-3.9-0.8-4.3-2.8s0.7-4.2,2.7-4.6C57.4,15.2,59.8,16.7,60.3,18.7
				z"/>
			<path fill="#2E414D" d="M51.3,16.4c0.1,0.4-0.2,0.7-0.6,0.8c-0.4,0.1-0.7-0.1-0.8-0.5c-0.1-0.4,0.1-0.8,0.5-0.8
				C50.8,15.8,51.2,16.1,51.3,16.4z"/>
			<path fill="#2E414D" d="M60.4,14.3c0.1,0.4-0.2,0.7-0.6,0.8c-0.4,0.1-0.7-0.1-0.8-0.5c-0.1-0.4,0.1-0.8,0.5-0.8
				C59.9,13.6,60.3,13.9,60.4,14.3z"/>
			<path fill="#2E414D" d="M62.2,23.3c0.1,0.4-0.2,0.7-0.6,0.8s-0.7-0.1-0.8-0.5c-0.1-0.4,0.1-0.8,0.5-0.8
				C61.7,22.6,62.2,22.9,62.2,23.3z"/>
			<path fill="#2E414D" d="M53.8,25.4c0.1,0.4-0.2,0.7-0.6,0.8c-0.4,0.1-0.7-0.1-0.8-0.5c-0.1-0.4,0.1-0.8,0.5-0.8
				C53.3,24.7,53.7,25,53.8,25.4z"/>
		</g>
	</g>
	<path opacity="0.75" fill="#00B7F1" d="M23.8,50.1c-2.6-1.2-5.4-1.3-7.9-0.3c-0.4-1.6-1.5-3-3.1-3.8c-2.9-1.4-6.4-0.2-7.8,2.7
		c-0.8,1.7-0.7,3.6,0.1,5.2c-1.6,0.7-3,1.9-3.9,3.6c-1.8,3.7-0.8,8.6,2.9,10.4c2.8,1.4,6.5,0.3,8.7-1.7c0.7,0.6,1.4,1.1,2.3,1.6
		c4.9,2.4,11.8,0.8,14.1-4C31.7,58.9,28.7,52.5,23.8,50.1z"/>
</g>
</svg>
