<?xml version="1.0" encoding="utf-8"?>
<!-- Generator: Adobe Illustrator 18.0.0, SVG Export Plug-In . SVG Version: 6.00 Build 0)  -->
<!DOCTYPE svg PUBLIC "-//W3C//DTD SVG 1.1//EN" "http://www.w3.org/Graphics/SVG/1.1/DTD/svg11.dtd">
<svg version="1.1" id="Layer_1" xmlns="http://www.w3.org/2000/svg" xmlns:xlink="http://www.w3.org/1999/xlink" x="0px" y="0px"
	 width="28px" height="14px" viewBox="0 0 28 14" enable-background="new 0 0 28 14" xml:space="preserve">
<g>
	<path fill="#828D94" d="M21,14c-3.9,0-7-3.1-7-7s3.1-7,7-7c3.9,0,7,3.1,7,7S24.9,14,21,14z M21,2c-2.8,0-5,2.2-5,5s2.2,5,5,5
		s5-2.2,5-5S23.8,2,21,2z"/>
	<g>
		<path fill="#00B7F1" d="M7,14c-3.9,0-7-3.1-7-7s3.1-7,7-7c3.9,0,7,3.1,7,7S10.9,14,7,14z M7,2C4.2,2,2,4.2,2,7s2.2,5,5,5
			s5-2.2,5-5S9.8,2,7,2z"/>
		<circle fill="#00B7F1" cx="7" cy="7" r="3.4"/>
	</g>
</g>
</svg>
