<?xml version="1.0" encoding="utf-8"?>
<!-- Generator: Adobe Illustrator 17.1.0, SVG Export Plug-In . SVG Version: 6.00 Build 0)  -->
<!DOCTYPE svg PUBLIC "-//W3C//DTD SVG 1.1//EN" "http://www.w3.org/Graphics/SVG/1.1/DTD/svg11.dtd">
<svg version="1.1" xmlns="http://www.w3.org/2000/svg" xmlns:xlink="http://www.w3.org/1999/xlink" x="0px" y="0px" width="165px"
	 height="30px" viewBox="0 0 165 30" enable-background="new 0 0 165 30" xml:space="preserve">
<g id="bg">
</g>
<g id="frame">
</g>
<g id="ui">
</g>
<g id="Layer_4">
	<g>
		<g>
			<path fill="#3B5998" d="M81,30H1c-0.6,0-1-0.4-1-1V1c0-0.6,0.4-1,1-1h80c0.6,0,1,0.4,1,1v28C82,29.6,81.6,30,81,30z"/>
			<g>
				<path fill="#FFFFFF" d="M37.7,18.6c0-0.1,0.1-0.3,0.2-0.5c0.1-0.2,0.2-0.3,0.3-0.3c0,0,0.1,0.1,0.3,0.2c0.2,0.1,0.5,0.2,0.9,0.4
					c0.4,0.1,0.8,0.2,1.3,0.2c0.5,0,0.9-0.2,1.2-0.5c0.3-0.3,0.5-0.7,0.5-1.2c0-0.5-0.2-0.9-0.5-1.1c-0.3-0.3-0.7-0.5-1.1-0.7
					c-0.4-0.2-0.9-0.3-1.3-0.5c-0.4-0.2-0.8-0.5-1.1-0.9c-0.3-0.4-0.5-0.9-0.5-1.5c0-0.8,0.3-1.4,0.9-1.9c0.6-0.5,1.3-0.7,2.3-0.7
					c0.5,0,0.9,0.1,1.5,0.3c0.5,0.2,0.8,0.4,0.8,0.6c0,0.1-0.1,0.3-0.2,0.4c-0.1,0.2-0.2,0.3-0.3,0.3c0,0-0.1,0-0.3-0.1
					c-0.5-0.3-1-0.4-1.5-0.4c-0.6,0-1,0.1-1.3,0.4c-0.3,0.3-0.5,0.7-0.5,1.2c0,0.5,0.3,0.9,0.9,1.2c0.3,0.1,0.6,0.2,0.9,0.4
					c0.3,0.1,0.6,0.3,1,0.4c0.3,0.2,0.6,0.3,0.9,0.5c0.3,0.2,0.5,0.5,0.6,0.8c0.2,0.4,0.3,0.8,0.3,1.2c0,0.9-0.3,1.5-0.8,2
					c-0.6,0.5-1.3,0.7-2.1,0.7s-1.6-0.1-2.2-0.3C38,19.1,37.7,18.8,37.7,18.6z"/>
				<path fill="#FFFFFF" d="M45.5,19.3V9.3C45.5,9.1,45.7,9,46,9h0.1c0.4,0,0.6,0.1,0.6,0.3v3.8c0.6-0.6,1.4-1,2.1-1
					c0.5,0,1,0.1,1.4,0.4c0.2,0.2,0.4,0.4,0.6,0.7C51,13.6,51,14,51,14.4v4.9c0,0.2-0.2,0.3-0.6,0.3h-0.1c-0.4,0-0.6-0.1-0.6-0.3
					v-4.7c0-0.4-0.1-0.8-0.4-1c-0.2-0.2-0.6-0.4-0.9-0.4c-0.4,0-0.7,0.1-1,0.2c-0.3,0.2-0.5,0.3-0.6,0.5l-0.2,0.3v5.1
					c0,0.2-0.2,0.3-0.6,0.3H46C45.7,19.6,45.5,19.5,45.5,19.3z"/>
				<path fill="#FFFFFF" d="M57.4,15v-0.7c0-0.8-0.5-1.2-1.5-1.2c-0.7,0-1.3,0.1-1.9,0.4c-0.2,0.1-0.3,0.2-0.3,0.2
					c-0.1,0-0.2-0.1-0.3-0.3c-0.1-0.2-0.2-0.3-0.2-0.4c0-0.2,0.3-0.4,0.8-0.6c0.5-0.2,1.2-0.3,2-0.3c0.8,0,1.4,0.2,1.9,0.6
					c0.5,0.4,0.7,0.9,0.7,1.6v3.1c0,0.6,0,1,0.1,1.2c0.1,0.3,0.1,0.5,0.1,0.5c0,0.1-0.1,0.2-0.3,0.2c-0.2,0.1-0.3,0.1-0.4,0.1
					c-0.1,0-0.2,0-0.2,0s-0.1-0.1-0.1-0.1c0,0-0.1-0.1-0.1-0.1s0-0.1-0.1-0.2c0-0.1,0-0.1,0-0.2c0,0,0-0.1,0-0.2c0-0.1,0-0.1,0-0.2
					c-0.6,0.7-1.4,1-2.3,1c-0.7,0-1.3-0.2-1.7-0.5c-0.4-0.4-0.7-0.9-0.7-1.6s0.3-1.3,0.8-1.7c0.5-0.4,1.1-0.6,1.7-0.7
					C55.9,15.1,56.6,15,57.4,15z M54,17.5c0,0.8,0.4,1.1,1.2,1.1c0.5,0,0.9-0.1,1.2-0.3c0.3-0.2,0.7-0.4,1-0.7V16
					c-1.2,0-1.9,0.1-2.3,0.2c-0.2,0.1-0.4,0.1-0.6,0.3C54.2,16.6,54,17,54,17.5z"/>
				<path fill="#FFFFFF" d="M61,19.3v-4.9c0-0.6,0-1-0.1-1.2c-0.1-0.3-0.1-0.5-0.1-0.5c0-0.1,0.1-0.2,0.3-0.2
					c0.2-0.1,0.3-0.1,0.4-0.1c0.1,0,0.2,0,0.2,0s0.1,0,0.1,0.1c0,0,0.1,0.1,0.1,0.1c0,0,0,0.1,0.1,0.2c0,0.1,0,0.1,0,0.2
					c0,0,0,0.1,0,0.2c0,0.1,0,0.1,0,0.2c0.5-0.7,1-1,1.6-1c0.3,0,0.5,0.1,0.6,0.2c0.1,0.1,0.2,0.2,0.2,0.4c0,0.2,0,0.3-0.1,0.5
					c-0.1,0.2-0.1,0.3-0.2,0.3c0,0-0.1,0-0.3-0.1s-0.3-0.1-0.5-0.1c-0.2,0-0.4,0.1-0.6,0.2c-0.2,0.1-0.4,0.3-0.5,0.4l-0.2,0.2v5.1
					c0,0.2-0.2,0.3-0.6,0.3h-0.1C61.2,19.6,61,19.5,61,19.3z"/>
				<path fill="#FFFFFF" d="M66.5,18.7c-0.6-0.6-0.8-1.5-0.8-2.8s0.3-2.2,0.8-2.8c0.6-0.6,1.3-1,2.3-1c2,0,3,1.2,3,3.7
					c0,0.1-0.1,0.2-0.2,0.4c-0.1,0.1-0.2,0.2-0.3,0.2h-4.4c0.1,0.8,0.3,1.3,0.6,1.7c0.3,0.4,0.9,0.5,1.6,0.5c0.6,0,1.2-0.1,1.7-0.4
					c0.2-0.1,0.3-0.1,0.3-0.1c0.1,0,0.2,0.1,0.3,0.3c0.1,0.2,0.2,0.3,0.2,0.4c0,0.2-0.3,0.4-0.8,0.6c-0.5,0.2-1.1,0.3-1.8,0.3
					C67.9,19.6,67,19.3,66.5,18.7z M70.5,15.4c0-1.5-0.6-2.2-1.7-2.2c-1.2,0-1.9,0.7-2,2.2H70.5z"/>
			</g>
			<path fill="#FFFFFF" d="M18.9,10.4h-2.2c-0.3,0-0.6,0.3-0.6,0.8v1.6h2.8v2.3h-2.8V22h-2.6v-6.9h-2.4v-2.3h2.4v-1.3
				c0-1.9,1.3-3.5,3.2-3.5h2.2V10.4z"/>
			<line fill="none" stroke="#FFFFFF" stroke-width="0.9701" stroke-miterlimit="10" x1="30" y1="3" x2="30" y2="27"/>
		</g>
		<g>
			<path fill="#00ACED" d="M164,30H84c-0.6,0-1-0.4-1-1V1c0-0.6,0.4-1,1-1h80c0.6,0,1,0.4,1,1v28C165,29.6,164.6,30,164,30z"/>
			<g>
				<path fill="#FFFFFF" d="M123.5,19.3v-8.5h-2.7c-0.2,0-0.3-0.1-0.3-0.4v-0.2c0-0.3,0.1-0.4,0.3-0.4h6.6c0.2,0,0.3,0.1,0.3,0.4
					v0.2c0,0.3-0.1,0.4-0.3,0.4h-2.6v8.5c0,0.2-0.2,0.3-0.6,0.3H124C123.6,19.6,123.5,19.5,123.5,19.3z"/>
				<path fill="#FFFFFF" d="M128.3,12.4c0-0.2,0.2-0.2,0.6-0.2h0.1c0.3,0,0.5,0.1,0.6,0.2l1.5,5.6l1.5-5.6c0-0.2,0.2-0.2,0.5-0.2
					h0.2c0.3,0,0.5,0.1,0.5,0.2l1.5,5.6l1.5-5.6c0-0.1,0.2-0.2,0.6-0.2s0.6,0.1,0.6,0.2c0,0,0,0.1,0,0.2l-1.9,6.7
					c0,0.1-0.2,0.2-0.6,0.2h-0.5c-0.3,0-0.5-0.1-0.5-0.2l-1.3-5.1l-1.3,5.1c0,0.1-0.2,0.2-0.6,0.2h-0.5c-0.3,0-0.5-0.1-0.6-0.2
					l-1.9-6.7C128.3,12.5,128.3,12.5,128.3,12.4z"/>
				<path fill="#FFFFFF" d="M139.9,18.7c-0.6-0.6-0.8-1.5-0.8-2.8s0.3-2.2,0.8-2.8c0.6-0.6,1.3-1,2.4-1c2,0,3,1.2,3,3.7
					c0,0.1-0.1,0.2-0.2,0.4c-0.1,0.1-0.2,0.2-0.3,0.2h-4.4c0.1,0.8,0.3,1.3,0.6,1.7c0.3,0.4,0.9,0.5,1.6,0.5c0.6,0,1.2-0.1,1.7-0.4
					c0.2-0.1,0.3-0.1,0.3-0.1c0.1,0,0.2,0.1,0.3,0.3c0.1,0.2,0.2,0.3,0.2,0.4c0,0.2-0.3,0.4-0.8,0.6c-0.5,0.2-1.1,0.3-1.8,0.3
					C141.4,19.6,140.5,19.3,139.9,18.7z M144,15.4c0-1.5-0.6-2.2-1.7-2.2c-1.2,0-1.9,0.7-2,2.2H144z"/>
				<path fill="#FFFFFF" d="M147.5,18.7c-0.6-0.6-0.8-1.5-0.8-2.8s0.3-2.2,0.8-2.8c0.6-0.6,1.3-1,2.3-1c2,0,3,1.2,3,3.7
					c0,0.1-0.1,0.2-0.2,0.4c-0.1,0.1-0.2,0.2-0.3,0.2h-4.4c0.1,0.8,0.3,1.3,0.6,1.7c0.3,0.4,0.9,0.5,1.6,0.5c0.6,0,1.2-0.1,1.7-0.4
					c0.2-0.1,0.3-0.1,0.3-0.1c0.1,0,0.2,0.1,0.3,0.3c0.1,0.2,0.2,0.3,0.2,0.4c0,0.2-0.3,0.4-0.8,0.6c-0.5,0.2-1.1,0.3-1.8,0.3
					C148.9,19.6,148,19.3,147.5,18.7z M151.5,15.4c0-1.5-0.6-2.2-1.7-2.2c-1.2,0-1.9,0.7-2,2.2H151.5z"/>
				<path fill="#FFFFFF" d="M154.9,17.7v-4.5h-0.7c-0.2,0-0.3-0.1-0.3-0.4v-0.2c0-0.3,0.1-0.4,0.3-0.4h0.7l0.2-1.5
					c0-0.2,0.2-0.3,0.4-0.3h0.1c0.3,0,0.4,0.1,0.4,0.3v1.5h1.2c0.2,0,0.3,0.1,0.3,0.4v0.2c0,0.3-0.1,0.4-0.3,0.4h-1.2v4.4
					c0,0.7,0.3,1,0.8,1c0.2,0,0.3,0,0.4,0c0.1,0,0.2,0,0.2,0c0.1,0,0.2,0.1,0.2,0.3c0.1,0.2,0.1,0.3,0.1,0.4c0,0.3-0.3,0.4-1,0.4
					c-0.5,0-0.9-0.1-1.3-0.4C155.1,18.9,154.9,18.4,154.9,17.7z"/>
			</g>
			<line fill="none" stroke="#FFFFFF" stroke-width="0.9701" stroke-miterlimit="10" x1="113" y1="3" x2="113" y2="27"/>
			<path fill="#FFFFFF" d="M106.8,9.7c-0.6,0.3-1.3,0.5-2,0.6c0.7-0.4,1.3-1.1,1.6-2c-0.7,0.4-1.4,0.7-2.2,0.9
				c-0.6-0.7-1.6-1.1-2.6-1.1c-1.9,0-3.5,1.6-3.5,3.5c0,0.3,0,0.5,0.1,0.8c-2.9-0.1-5.5-1.6-7.3-3.7c-0.3,0.5-0.5,1.1-0.5,1.8
				c0,1.2,0.6,2.3,1.6,2.9c-0.6,0-1.1-0.2-1.6-0.4c0,0,0,0,0,0c0,1.7,1.2,3.1,2.8,3.5c-0.3,0.1-0.6,0.1-0.9,0.1
				c-0.2,0-0.4,0-0.7-0.1C92,18,93.3,19,94.8,19c-1.2,0.9-2.7,1.5-4.4,1.5c-0.3,0-0.6,0-0.8,0c1.6,1,3.4,1.6,5.4,1.6
				c6.5,0,10-5.4,10-10c0-0.2,0-0.3,0-0.5C105.7,11.1,106.3,10.5,106.8,9.7z"/>
		</g>
	</g>
</g>
</svg>
