<?xml version="1.0" encoding="utf-8"?>
<!-- Generator: Adobe Illustrator 18.0.0, SVG Export Plug-In . SVG Version: 6.00 Build 0)  -->
<!DOCTYPE svg PUBLIC "-//W3C//DTD SVG 1.1//EN" "http://www.w3.org/Graphics/SVG/1.1/DTD/svg11.dtd">
<svg version="1.1" id="Layer_1" xmlns="http://www.w3.org/2000/svg" xmlns:xlink="http://www.w3.org/1999/xlink" x="0px" y="0px"
	 width="70px" height="72px" viewBox="0 0 70 72" enable-background="new 0 0 70 72" xml:space="preserve">
<g id="bg">
</g>
<g>
	<path fill="#0098D1" d="M62.3,63.2l-5.9-21.8c-0.9-3.5-4-5.4-7.8-5.4H36h-2H21.3c-3.7,0-6.8,1.9-7.8,5.4L7.7,63.2
		C6.6,67.3,5.6,72,0,72h34h2h34C64.4,72,63.4,67.3,62.3,63.2z"/>
	<path fill="#FFFFFF" d="M62.3,27.2L56.4,5.4c-0.9-3.5-4-5.4-7.8-5.4H36h-2H21.3c-3.7,0-6.8,1.9-7.8,5.4L7.7,27.2
		C6.6,31.3,5.6,36,0,36h34h2h34C64.4,36,63.4,31.3,62.3,27.2z"/>
</g>
</svg>
