<svg width="34" height="36" viewBox="0 0 34 36" xmlns="http://www.w3.org/2000/svg"><g fill="none" fill-rule="evenodd"><path d="M3.387 3.998c-.89.343-1.445 1.203-1.363 2.12.433 4.818 2.64 20.298 13.36 27.485.75.504 1.752.504 2.504 0 10.72-7.188 12.925-22.668 13.358-27.486.082-.917-.47-1.776-1.363-2.12-6.744-2.59-19.753-2.59-26.496 0z" fill="#FFF"/><path d="M3.387 3.998c-.89.343-1.445 1.203-1.363 2.12.433 4.818 2.64 20.298 13.36 27.485.75.504 1.752.504 2.504 0 10.72-7.188 12.925-22.668 13.358-27.486.082-.917-.47-1.776-1.363-2.12-6.744-2.59-19.753-2.59-26.496 0zM2.67 2.13C9.874-.637 23.394-.637 30.6 2.133c1.716.66 2.8 2.345 2.638 4.164-.37 4.13-1.273 8.773-2.933 13.357-2.43 6.706-6.106 12.126-11.303 15.61-1.426.957-3.307.957-4.733 0-5.2-3.484-8.875-8.903-11.304-15.61C1.306 15.07.403 10.425.032 6.296-.13 4.48.955 2.79 2.67 2.13z" fill="#FFF"/><path d="M3.387 3.998c-.89.343-1.445 1.203-1.363 2.12.433 4.818 2.64 20.298 13.36 27.485.75.504 1.752.504 2.504 0 10.72-7.188 12.925-22.668 13.358-27.486.082-.917-.47-1.776-1.363-2.12-6.744-2.59-19.753-2.59-26.496 0zM17.12 30.935c-.285.214-.686.213-.972 0C9.055 25.628 5.76 15.418 4.81 6.864c-.04-.356.188-.692.546-.8 2.412-.733 11.686-3.094 22.545.013.365.105.6.443.56.805-.95 8.553-4.258 18.756-11.34 24.052z" fill="#27A845"/><path d="M16.613 7.097c-3 0-5.945.35-8.47.916-.262.06-.432.298-.393.552C8.758 15.21 11.322 22.9 16.272 27.6c.2.19.525.19.726 0 4.95-4.7 7.516-12.392 8.522-19.01.038-.252-.132-.49-.39-.55-2.763-.626-5.617-.943-8.517-.943zm.916 15.757c-.12.172-.342.25-.548.19-.206-.06-.347-.24-.347-.447V10.143c0-.125.053-.245.146-.333.094-.088.22-.136.35-.134 1.637.03 3.268.187 4.863.432.13.02.247.09.323.195.075.104.104.233.078.357-.857 4.133-2.407 8.633-4.865 12.194z" fill="#27A845"/></g></svg>